<?xml version="1.0" encoding="UTF-8"?>
<svg version="1.1" xmlns="http://www.w3.org/2000/svg" width="1024" height="1024">
<path d="M0 0 C337.92 0 675.84 0 1024 0 C1024 337.92 1024 675.84 1024 1024 C686.08 1024 348.16 1024 0 1024 C0 686.08 0 348.16 0 0 Z " fill="#FEFEFE" transform="translate(0,0)"/>
<path d="M0 0 C22.1951895 -0.46959572 44.67400206 0.46703136 66.44482422 5.06201172 C67.81525879 5.3477002 67.81525879 5.3477002 69.21337891 5.63916016 C112.67122492 14.90160418 153.65853924 33.36677714 188.44482422 61.06201172 C189.36779297 61.79033203 190.29076172 62.51865234 191.24169922 63.26904297 C208.36507051 77.00238266 225.07848494 92.61868093 238.44482422 110.06201172 C239.60111328 111.49287109 239.60111328 111.49287109 240.78076172 112.95263672 C251.38419921 126.26546991 260.27478352 140.70260069 267.51367188 156.09814453 C268.45086343 158.07474885 269.41886536 160.03359296 270.39404297 161.99169922 C287.00915359 195.72925209 298.48633213 234.45972201 298.64794922 272.25341797 C298.65364929 273.31576157 298.65934937 274.37810516 298.66522217 275.47264099 C298.67463046 277.71913676 298.68118947 279.96564607 298.68505859 282.2121582 C298.69464751 285.5627641 298.72566244 288.91272429 298.75732422 292.26318359 C298.8515107 311.36991159 297.03288529 330.09162955 293.13232422 348.81201172 C292.92067627 349.84237549 292.70902832 350.87273926 292.4909668 351.93432617 C290.38906711 361.83978651 287.65846281 371.46434561 284.44482422 381.06201172 C284.16300293 381.91794922 283.88118164 382.77388672 283.59082031 383.65576172 C273.05145409 415.31459787 256.96890226 445.47753067 235.44482422 471.06201172 C234.81785645 471.82215576 234.81785645 471.82215576 234.17822266 472.59765625 C223.90486733 485.04831669 212.88113169 496.89928979 200.16748047 506.89794922 C197.67332045 508.88039491 195.26782666 510.94096032 192.86914062 513.03710938 C185.16796747 519.7257684 176.98849128 525.5029028 168.44482422 531.06201172 C167.25324707 531.8397998 167.25324707 531.8397998 166.03759766 532.63330078 C101.32897074 574.55400454 22.69388771 587.722078 -52.55517578 571.81201172 C-98.36059348 561.34969847 -140.67959216 540.39543622 -176.55517578 510.06201172 C-177.65524346 509.14901902 -178.75551353 508.23627015 -179.85595703 507.32373047 C-192.28067906 496.93927859 -203.52968239 485.79761013 -213.55517578 473.06201172 C-215.01311928 471.33251635 -216.47146211 469.60335755 -217.93017578 467.87451172 C-240.00759554 440.80567532 -256.021372 408.22895654 -266.55517578 375.06201172 C-266.84328125 374.1603125 -267.13138672 373.25861328 -267.42822266 372.32958984 C-275.24409871 347.30039616 -278.45077997 321.18319769 -279.55517578 295.06201172 C-279.6004541 294.14145996 -279.64573242 293.2209082 -279.69238281 292.27246094 C-281.71858334 246.77196617 -269.61167297 199.60782138 -249.55517578 159.06201172 C-249.12591797 158.19108887 -248.69666016 157.32016602 -248.25439453 156.42285156 C-239.92723736 139.68754543 -230.18011067 124.66337921 -218.55517578 110.06201172 C-217.82685547 109.13904297 -217.09853516 108.21607422 -216.34814453 107.26513672 C-203.43260388 91.16143559 -188.8882467 75.71145388 -172.55517578 63.06201172 C-171.57419922 62.27568359 -170.59322266 61.48935547 -169.58251953 60.67919922 C-121.5832002 22.48781368 -61.1916818 1.4850647 0 0 Z " fill="#FEFEFE" transform="translate(502.55517578125,214.93798828125)"/>
<path d="M0 0 C22.1951895 -0.46959572 44.67400206 0.46703136 66.44482422 5.06201172 C67.81525879 5.3477002 67.81525879 5.3477002 69.21337891 5.63916016 C112.67122492 14.90160418 153.65853924 33.36677714 188.44482422 61.06201172 C189.36779297 61.79033203 190.29076172 62.51865234 191.24169922 63.26904297 C208.36507051 77.00238266 225.07848494 92.61868093 238.44482422 110.06201172 C239.60111328 111.49287109 239.60111328 111.49287109 240.78076172 112.95263672 C251.38419921 126.26546991 260.27478352 140.70260069 267.51367188 156.09814453 C268.45086343 158.07474885 269.41886536 160.03359296 270.39404297 161.99169922 C287.00915359 195.72925209 298.48633213 234.45972201 298.64794922 272.25341797 C298.65364929 273.31576157 298.65934937 274.37810516 298.66522217 275.47264099 C298.67463046 277.71913676 298.68118947 279.96564607 298.68505859 282.2121582 C298.69464751 285.5627641 298.72566244 288.91272429 298.75732422 292.26318359 C298.8515107 311.36991159 297.03288529 330.09162955 293.13232422 348.81201172 C292.92067627 349.84237549 292.70902832 350.87273926 292.4909668 351.93432617 C290.38906711 361.83978651 287.65846281 371.46434561 284.44482422 381.06201172 C284.16300293 381.91794922 283.88118164 382.77388672 283.59082031 383.65576172 C273.05145409 415.31459787 256.96890226 445.47753067 235.44482422 471.06201172 C234.81785645 471.82215576 234.81785645 471.82215576 234.17822266 472.59765625 C223.90486733 485.04831669 212.88113169 496.89928979 200.16748047 506.89794922 C197.67332045 508.88039491 195.26782666 510.94096032 192.86914062 513.03710938 C185.16796747 519.7257684 176.98849128 525.5029028 168.44482422 531.06201172 C167.25324707 531.8397998 167.25324707 531.8397998 166.03759766 532.63330078 C101.32897074 574.55400454 22.69388771 587.722078 -52.55517578 571.81201172 C-98.36059348 561.34969847 -140.67959216 540.39543622 -176.55517578 510.06201172 C-177.65524346 509.14901902 -178.75551353 508.23627015 -179.85595703 507.32373047 C-192.28067906 496.93927859 -203.52968239 485.79761013 -213.55517578 473.06201172 C-215.01311928 471.33251635 -216.47146211 469.60335755 -217.93017578 467.87451172 C-240.00759554 440.80567532 -256.021372 408.22895654 -266.55517578 375.06201172 C-266.84328125 374.1603125 -267.13138672 373.25861328 -267.42822266 372.32958984 C-275.24409871 347.30039616 -278.45077997 321.18319769 -279.55517578 295.06201172 C-279.6004541 294.14145996 -279.64573242 293.2209082 -279.69238281 292.27246094 C-281.71858334 246.77196617 -269.61167297 199.60782138 -249.55517578 159.06201172 C-249.12591797 158.19108887 -248.69666016 157.32016602 -248.25439453 156.42285156 C-239.92723736 139.68754543 -230.18011067 124.66337921 -218.55517578 110.06201172 C-217.82685547 109.13904297 -217.09853516 108.21607422 -216.34814453 107.26513672 C-203.43260388 91.16143559 -188.8882467 75.71145388 -172.55517578 63.06201172 C-171.57419922 62.27568359 -170.59322266 61.48935547 -169.58251953 60.67919922 C-121.5832002 22.48781368 -61.1916818 1.4850647 0 0 Z M-166.55517578 72.06201172 C-167.08997559 72.47821777 -167.62477539 72.89442383 -168.17578125 73.32324219 C-176.07032479 79.5266371 -183.18592543 86.4949125 -190.30517578 93.56201172 C-191.18069092 94.42818115 -192.05620605 95.29435059 -192.95825195 96.18676758 C-198.91148695 102.1692817 -204.33150331 108.43596848 -209.55517578 115.06201172 C-210.09980469 115.74730957 -210.64443359 116.43260742 -211.20556641 117.13867188 C-228.90673995 139.64226101 -242.81670192 165.15723562 -252.55517578 192.06201172 C-253.01682129 193.32561523 -253.01682129 193.32561523 -253.48779297 194.61474609 C-260.69456968 214.57081535 -265.20169996 234.98252331 -267.55517578 256.06201172 C-267.65088867 256.91811035 -267.74660156 257.77420898 -267.84521484 258.65625 C-268.78635147 268.31555007 -268.79866948 277.99074561 -268.80517578 287.68701172 C-268.80585052 288.59385712 -268.80652527 289.50070251 -268.80722046 290.43502808 C-268.72545321 359.87834992 -242.4000415 427.3265187 -194.55517578 478.06201172 C-193.36226324 479.43231859 -192.17460236 480.80721796 -190.99267578 482.18701172 C-185.01977744 489.02694369 -178.50577726 495.22827756 -171.55517578 501.06201172 C-171.0032959 501.52768555 -170.45141602 501.99335937 -169.8828125 502.47314453 C-160.50814379 510.35130649 -150.92466252 517.548808 -140.55517578 524.06201172 C-139.69303467 524.60970215 -139.69303467 524.60970215 -138.81347656 525.16845703 C-95.23619084 552.70525135 -46.87791419 567.5290126 4.63916016 567.32275391 C7.80895207 567.31204844 10.97817451 567.32270739 14.14794922 567.33544922 C31.26072898 567.34841767 48.10206089 566.3494494 64.88232422 562.81201172 C65.93033203 562.59440186 66.97833984 562.37679199 68.05810547 562.15258789 C107.17607515 553.80864445 144.52768788 537.25134656 176.44482422 513.06201172 C177.01894043 512.63065918 177.59305664 512.19930664 178.18457031 511.75488281 C187.09499884 505.0297068 195.41378762 497.81191518 203.44482422 490.06201172 C204.03328125 489.49546875 204.62173828 488.92892578 205.22802734 488.34521484 C212.84664044 480.97104923 219.90179192 473.42326435 226.44482422 465.06201172 C227.07259766 464.31306641 227.70037109 463.56412109 228.34716797 462.79248047 C238.97574616 450.03383957 247.67989343 435.70402986 255.44482422 421.06201172 C255.77401855 420.44745117 256.10321289 419.83289063 256.44238281 419.19970703 C273.12079981 387.83135793 284.18848193 353.52867949 287.44482422 318.06201172 C287.52877441 317.17980957 287.61272461 316.29760742 287.69921875 315.38867188 C291.24698524 274.68773001 286.80331903 234.71331115 273.44482422 196.06201172 C273.22922852 195.41748047 273.01363281 194.77294922 272.79150391 194.10888672 C263.27983928 165.82227734 248.18900773 139.19124425 229.44482422 116.06201172 C228.64302734 115.04880859 227.84123047 114.03560547 227.01513672 112.99169922 C215.76990559 98.94516496 203.24685391 85.38553597 189.12841797 74.19091797 C187.38893616 72.8109797 185.67090502 71.40338318 183.97998047 69.96435547 C148.68077836 39.99538727 102.58942353 22.52508647 57.44482422 14.06201172 C56.59001465 13.89830078 55.73520508 13.73458984 54.85449219 13.56591797 C-22.42045238 -0.47615944 -105.56366776 24.16232189 -166.55517578 72.06201172 Z " fill="#3BCB03" transform="translate(502.55517578125,214.93798828125)"/>
<path d="M0 0 C2.63976421 2.02278623 5.22102544 4.11439995 7.78881836 6.22705078 C8.36567383 6.6970752 8.9425293 7.16709961 9.53686523 7.65136719 C11.31581293 9.1053334 13.08563377 10.56951455 14.85131836 12.03955078 C15.38797119 12.48363281 15.92462402 12.92771484 16.47753906 13.38525391 C19.65735262 16.07769512 22.29296697 18.89326367 24.78881836 22.22705078 C13.80193092 34.13519897 0.26831293 43.3741457 -13.21118164 52.22705078 C-14.19344727 52.87544922 -15.17571289 53.52384766 -16.18774414 54.19189453 C-36.0079054 66.50272709 -61.5772279 74.83370069 -84.99633789 70.53173828 C-100.90579315 66.41155291 -113.10535125 57.97821194 -121.83618164 44.00048828 C-126.22331876 35.1514333 -126.62499907 24.66955976 -124.52368164 15.09423828 C-123.58644449 12.35281961 -122.49999203 9.8208322 -121.21118164 7.22705078 C-120.8102832 6.39947266 -120.40938477 5.57189453 -119.99633789 4.71923828 C-112.09606825 -9.89053572 -98.75998491 -19.25183314 -83.21118164 -24.21044922 C-53.09804962 -32.77579162 -23.74631985 -17.70237342 0 0 Z " fill="#FDFEFE" transform="translate(482.211181640625,636.77294921875)"/>
<path d="M0 0 C8.61299154 7.0229008 15.72865954 17.23762238 16.94189453 28.47265625 C17.94444614 42.92951326 15.2044811 54.11371298 5.71875 65.40625 C-7.69569321 79.6461974 -26.16555275 86.17172422 -45.40625 86.78125 C-74.61921233 86.25010523 -101.10814373 69.52660852 -122.71875 51.21875 C-123.31051025 50.71947998 -123.90227051 50.22020996 -124.51196289 49.70581055 C-127.83127996 46.84524927 -130.6507497 43.9415907 -133.28125 40.40625 C-127.16007024 33.77180362 -120.33122209 28.28014853 -113.16650391 22.83837891 C-111.92062371 21.89194881 -110.67803492 20.94116845 -109.43896484 19.98583984 C-79.48850492 -3.07322264 -35.28610894 -24.65193912 0 0 Z " fill="#FDFEFE" transform="translate(653.28125,622.59375)"/>
<path d="M0 0 C10.49575082 7.82686716 20.59441388 16.19326777 30.5 24.75 C34.26248977 22.97699936 37.14557939 20.60423956 40.25 17.875 C60.69453678 0.28271109 82.87958581 -13.59299689 108.5 -22.25 C109.93472656 -22.76240234 109.93472656 -22.76240234 111.3984375 -23.28515625 C129.08208438 -28.73212485 148.91566725 -26.00013343 165.09692383 -17.49462891 C181.35286718 -8.40130017 194.62706369 4.24840948 200.63671875 22.1328125 C203.44605023 33.9040385 201.99203138 45.9486493 195.95703125 56.4296875 C185.53283956 72.12561001 170.67992813 80.86865291 152.58203125 85.49609375 C122.11608779 91.58928244 92.37925996 79.13904841 67.1875 62.75 C56.67192172 55.52491559 47.13810166 47.08265273 37.5 38.75 C34.04963373 40.27995456 31.4429646 42.3243456 28.5625 44.75 C-0.07955955 68.42895134 -33.54543195 89.45983279 -72.19433594 86.97314453 C-91.68781209 85.08654593 -109.97139486 74.00658066 -122.53125 59.28515625 C-131.59569798 47.61288097 -134.87472528 36.56305101 -133.5 21.75 C-130.20677481 6.13974047 -120.533773 -6.33819806 -107.49438477 -15.14331055 C-102.38207873 -18.46037692 -97.19412538 -21.09888597 -91.5 -23.25 C-90.72269531 -23.56839844 -89.94539063 -23.88679687 -89.14453125 -24.21484375 C-58.76298849 -34.6962345 -24.08817119 -17.60374553 0 0 Z M-108.5 0.75 C-109.14582031 1.37519531 -109.79164063 2.00039063 -110.45703125 2.64453125 C-119.26223528 11.75667049 -122.80210319 23.1086072 -122.81469727 35.46899414 C-122.59102463 47.19923426 -117.65063529 55.27422099 -109.7265625 63.6171875 C-98.2676508 74.49590114 -83.8349525 79.32266094 -68.25952148 79.16552734 C-38.70768909 78.1062753 -11.8588317 63.14572189 10.5 44.75 C11.07685547 44.27997559 11.65371094 43.80995117 12.24804688 43.32568359 C14.02699457 41.87171738 15.79681541 40.40753623 17.5625 38.9375 C18.09915283 38.49341797 18.63580566 38.04933594 19.1887207 37.59179688 C22.36853426 34.89935566 25.00414861 32.08378711 27.5 28.75 C20.84152907 21.53321007 13.31016096 15.64410706 5.5 9.75 C4.93506836 9.31896973 4.37013672 8.88793945 3.78808594 8.44384766 C-13.84938221 -4.94145473 -34.97408971 -17.59809991 -57.5 -19.25 C-58.38429688 -19.33121094 -59.26859375 -19.41242187 -60.1796875 -19.49609375 C-78.29741178 -20.38316334 -96.09882158 -12.00740617 -108.5 0.75 Z M66.5 11.75 C65.91911621 12.18957031 65.33823242 12.62914062 64.73974609 13.08203125 C56.2267289 19.52657331 48.25140548 26.4102992 40.5 33.75 C44.33573134 38.435817 48.32010937 42.64519754 52.9375 46.5625 C53.54021729 47.07458008 54.14293457 47.58666016 54.76391602 48.11425781 C76.08010994 65.88004452 104.90645272 81.9584495 133.46240234 79.95703125 C151.73526277 78.10040704 168.01386585 71.02393627 180.75 57.5 C189.97805772 46.11609973 191.60579262 33.8623219 190.5 19.75 C188.38407026 8.56387463 180.99473772 -1.2247434 171.8359375 -7.7578125 C137.39020832 -29.76160606 95.5661646 -10.64371657 66.5 11.75 Z " fill="#04325D" transform="translate(479.5,629.25)"/>
<path d="M0 0 C18.62756831 16.41288999 32.42874397 38.90346803 34.3984375 64.11328125 C35.5386099 84.75682513 33.24114354 102.26093518 22.3984375 120.11328125 C20.1484375 122.5625 20.1484375 122.5625 18.3984375 124.11328125 C19.41074729 121.01073921 20.4638652 117.94006561 21.6171875 114.88671875 C30.63254852 90.97402337 29.81017926 65.45482187 19.3984375 42.11328125 C8.58338553 19.15833345 -9.42248773 4.23463951 -32.82421875 -4.60546875 C-41.44505295 -7.52959865 -50.45315859 -10.50420709 -59.6015625 -10.88671875 C-60.71273437 -10.93828125 -61.82390625 -10.98984375 -62.96875 -11.04296875 C-90.73056113 -11.70265535 -115.77629829 -3.52703721 -136.6015625 15.11328125 C-137.22289062 15.65210938 -137.84421875 16.1909375 -138.484375 16.74609375 C-154.27300496 31.3597559 -165.61803367 54.51939037 -166.97265625 75.95703125 C-167.55998311 91.60951843 -164.35535818 105.3661722 -157.67578125 119.453125 C-157.32128906 120.33097656 -156.96679688 121.20882812 -156.6015625 122.11328125 C-156.9315625 122.77328125 -157.2615625 123.43328125 -157.6015625 124.11328125 C-171.00836857 103.05223484 -177.40996223 80.8753829 -172.75390625 55.94921875 C-169.33210357 40.66814405 -162.59438842 26.18080817 -152.6015625 14.11328125 C-151.91449219 13.27539062 -151.22742188 12.4375 -150.51953125 11.57421875 C-113.15774977 -31.91354853 -43.7412068 -36.45100567 0 0 Z " fill="#022F57" transform="translate(584.6015625,469.88671875)"/>
<path d="M0 0 C8.06243157 4.75107575 14.11369051 11.36364306 17.3046875 20.19921875 C19.59832564 29.43819936 18.46541146 38.61756094 14 47 C11.90310363 49.95155555 9.60423535 52.49111423 7 55 C6.2575 55.7425 5.515 56.485 4.75 57.25 C-3.85802981 62.72783715 -12.61439235 64.24389181 -22.59765625 62.5625 C-31.61846688 60.33169675 -38.55570431 54.67358791 -43.78125 47.08203125 C-48.59819867 38.85307727 -49.53852328 29.50209241 -47.34375 20.2265625 C-44.2790036 11.63998854 -37.95440316 4.17568169 -29.890625 -0.125 C-20.19766168 -4.57018063 -9.72693266 -4.37054744 0 0 Z " fill="#003A69" transform="translate(528,347)"/>
<path d="M0 0 C3.91209308 1.59415503 6.37218086 4.13893332 9.3125 7.125 C10.21613281 8.03507812 11.11976563 8.94515625 12.05078125 9.8828125 C15.49993441 13.47283162 18.76341393 17.21845302 22 21 C22.5163501 21.60328125 23.0327002 22.2065625 23.56469727 22.828125 C44.7259996 48.02815814 61.31244789 83.07598486 59.25439453 116.55322266 C57.67147859 131.777775 49.72101745 145.31184652 38 155 C24.6266287 164.59311436 8.30716091 168.26272264 -8 167 C-22.76800924 164.2881753 -35.47986089 157.34872888 -44.125 144.953125 C-53.35807147 130.49250571 -58.59335232 115.67403948 -55.3125 98.375 C-51.02500708 82.0825269 -41.86810917 70.69702256 -30.03759766 59.16186523 C-21.59850933 50.93306399 -14.89216846 43.19975898 -9 33 C-8.34 32.34 -7.68 31.68 -7 31 C-8.52299448 42.71667345 -15.49703493 51.31717936 -23 60 C-35.06550537 74.01339114 -45.70367381 88.77467957 -45.24609375 108.046875 C-44.08257151 122.00914186 -38.59387028 134.6244248 -28 144 C-14.86412131 153.03955863 -2.00064878 155.15959951 13.625 152.34765625 C24.37058597 149.08760217 33.59021555 142.20781954 40 133 C42.04367766 129.105052 43.60842698 125.16908516 45 121 C45.24621094 120.27296875 45.49242187 119.5459375 45.74609375 118.796875 C53.0477784 92.41009736 39.21881054 62.69467941 27 40 C26.38640625 38.83339844 25.7728125 37.66679687 25.140625 36.46484375 C19.95546598 26.96228992 13.65185645 18.51305859 7 10 C6.23300781 9.01773437 5.46601562 8.03546875 4.67578125 7.0234375 C3.49310814 5.51211081 2.30542726 4.00466706 1.109375 2.50390625 C0 1 0 1 0 0 Z " fill="#03325A" transform="translate(511,269)"/>
<path d="M0 0 C8.43709284 3.39584235 12.99247336 9.99536303 16.7734375 17.9375 C21.34862968 29.36090976 21.77509997 41.73237272 17.32421875 53.2578125 C9.86552688 68.70324523 -3.19212949 78.89511454 -19.0625 84.875 C-28.48233309 87.95276725 -37.38262281 89.1562458 -47.25 89.25 C-48.36713379 89.2641394 -48.36713379 89.2641394 -49.50683594 89.27856445 C-54.63380057 89.2483589 -59.06860866 88.40578124 -64 87 C-63.5078125 85.046875 -63.5078125 85.046875 -62 83 C-59.17482275 82.53411453 -56.70920439 82.30384499 -53.875 82.25 C-53.12089844 82.22035156 -52.36679687 82.19070313 -51.58984375 82.16015625 C-49.72714047 82.08942068 -47.86356245 82.04245017 -46 82 C-46 81.67 -46 81.34 -46 81 C-44.86304688 80.79246094 -43.72609375 80.58492187 -42.5546875 80.37109375 C-24.98197078 76.95290212 -9.38405269 70.1845105 1.53125 55.3046875 C8.55973217 44.27595218 9.91456115 31.37587944 7.31640625 18.65234375 C5.48329927 13.24429785 2.83797902 8.92343542 -0.828125 4.55859375 C-2 3 -2 3 -2 1 C-1.34 0.67 -0.68 0.34 0 0 Z " fill="#043A69" transform="translate(661,627)"/>
<path d="M0 0 C3.91209308 1.59415503 6.37218086 4.13893332 9.3125 7.125 C10.21613281 8.03507812 11.11976563 8.94515625 12.05078125 9.8828125 C15.49993441 13.47283162 18.76341393 17.21845302 22 21 C22.5163501 21.60328125 23.0327002 22.2065625 23.56469727 22.828125 C31.03540143 31.72464703 36.99345373 41.07675127 42.375 51.375 C42.95266113 52.47513428 43.53032227 53.57526855 44.12548828 54.70874023 C47.11789895 60.61107905 47.11789895 60.61107905 48 63 C47.67 63.99 47.34 64.98 47 66 C45.02 62.04 43.04 58.08 41 54 C40.01 55.32 39.02 56.64 38 58 C37.34 58 36.68 58 36 58 C35.49210938 56.97261719 34.98421875 55.94523437 34.4609375 54.88671875 C32.32652527 50.58139079 30.16682368 46.2890881 28 42 C27.26716797 40.54013672 27.26716797 40.54013672 26.51953125 39.05078125 C20.18757006 26.9253541 11.92073165 15.87556594 3.3527832 5.25268555 C0 1.0907157 0 1.0907157 0 0 Z " fill="#062950" transform="translate(511,269)"/>
<path d="M0 0 C0.433125 0.66 0.86625 1.32 1.3125 2 C2.1478125 2.99 2.1478125 2.99 3 4 C3.99 4 4.98 4 6 4 C6.15640364 8.30110021 6.09809174 12.02024318 5.015625 16.19140625 C0.81694085 34.37884974 5.09813406 52.83165802 12.92578125 69.33984375 C13.28027344 70.21769531 13.63476562 71.09554687 14 72 C13.67 72.66 13.34 73.32 13 74 C2.62849294 57.70717153 -3.29755095 42.01386847 -3.4375 22.6875 C-3.44765137 21.6977417 -3.45780273 20.7079834 -3.46826172 19.68823242 C-3.38593945 12.73895776 -2.12229368 6.60781192 0 0 Z " fill="#042F58" transform="translate(414,520)"/>
<path d="M0 0 C1.51444522 4.54333567 -0.36367459 7.34592517 -2.2265625 11.6171875 C-5.99658159 18.8084574 -11.33984604 24.8864563 -16.58984375 31.03125 C-21.82270786 37.1591032 -26.24186212 43.25962316 -30.30859375 50.1875 C-31.75377668 52.59057554 -33.26928108 54.79822914 -35 57 C-34.125 52.25 -34.125 52.25 -33 50 C-33.99 50 -34.98 50 -36 50 C-36 49.01 -36 48.02 -36 47 C-37.13277268 49.18376766 -38.25622789 51.37157128 -39.375 53.5625 C-39.69210937 54.17158203 -40.00921875 54.78066406 -40.3359375 55.40820312 C-42.43311374 59.53701886 -43.85603936 63.51082113 -45 68 C-45.33 68 -45.66 68 -46 68 C-45.6732289 51.66144525 -32.98833103 38.85814565 -22.03955078 28.16845703 C-21.20149902 27.34974121 -20.36344727 26.53102539 -19.5 25.6875 C-18.66581543 24.87265137 -17.83163086 24.05780273 -16.97216797 23.21826172 C-9.90315573 16.18286475 -4.47045411 8.94090821 0 0 Z " fill="#042952" transform="translate(503,300)"/>
<path d="M0 0 C0.33 0 0.66 0 1 0 C3.62852496 22.52167974 2.91836701 39.37659495 -9 59 C-11.25 61.44921875 -11.25 61.44921875 -13 63 C-11.98769021 59.89745796 -10.9345723 56.82678436 -9.78125 53.7734375 C-6.93393914 46.22111907 -4.98330881 39.01323302 -4 31 C-3.67 31 -3.34 31 -3 31 C-2.24636948 27.64908229 -1.88020063 24.56890188 -1.90234375 21.13671875 C-1.90556641 20.25048828 -1.90878906 19.36425781 -1.91210938 18.45117188 C-1.92048828 17.53916016 -1.92886719 16.62714844 -1.9375 15.6875 C-1.94201172 14.75615234 -1.94652344 13.82480469 -1.95117188 12.86523438 C-1.96290766 10.57675627 -1.97932637 8.28841192 -2 6 C-1.67 6 -1.34 6 -1 6 C-0.67 4.02 -0.34 2.04 0 0 Z " fill="#043A61" transform="translate(616,531)"/>
<path d="M0 0 C0.33 0 0.66 0 1 0 C1.02578125 1.24652344 1.0515625 2.49304688 1.078125 3.77734375 C1.55252774 19.83087844 4.02644127 33.78941973 10.92578125 48.33984375 C11.28027344 49.21769531 11.63476562 50.09554687 12 51 C11.67 51.66 11.34 52.32 11 53 C3.67886844 41.49907347 -5.15057869 27.19047054 -4 13 C-3.67 14.32 -3.34 15.64 -3 17 C-2.34 17 -1.68 17 -1 17 C-0.67 11.39 -0.34 5.78 0 0 Z " fill="#041B44" transform="translate(416,541)"/>
<path d="M0 0 C4.31380794 1.45650711 7.59833834 3.7605094 11.125 6.5625 C11.68687012 7.00287598 12.24874023 7.44325195 12.82763672 7.89697266 C14.5573888 9.25769798 16.27919098 10.62799028 18 12 C18.53625 12.42361816 19.0725 12.84723633 19.625 13.28369141 C29.10693332 20.78330804 29.10693332 20.78330804 32 25 C31.01 25 30.02 25 29 25 C31.475 27.97 31.475 27.97 34 31 C30.26496231 29.42414494 27.74720569 27.07781431 24.8125 24.3125 C20.06810126 19.91882966 15.18185768 15.86400252 10 12 C10.66 11.34 11.32 10.68 12 10 C11.13375 9.443125 10.2675 8.88625 9.375 8.3125 C6.0391747 6.08861647 3.00855737 3.65039578 0 1 C0 0.67 0 0.34 0 0 Z " fill="#09214C" transform="translate(474,627)"/>
<path d="M0 0 C0.33 0 0.66 0 1 0 C0.67424011 14.51112257 -5.09908756 26.19764444 -13 38 C-13.33 37.34 -13.66 36.68 -14 36 C-13.15690089 33.84475369 -12.22334468 31.72464352 -11.25 29.625 C-8.36575138 23.23094277 -6.43655249 16.88033037 -5 10 C-4.67 10.99 -4.34 11.98 -4 13 C-3.34 13 -2.68 13 -2 13 C-1.34 8.71 -0.68 4.42 0 0 Z " fill="#0A2249" transform="translate(617,556)"/>
<path d="M0 0 C1.76430893 5.29292679 -1.60565481 10.20526329 -4 15 C-5.83725359 17.82027012 -7.81214152 20.44373923 -10 23 C-10.33 22.01 -10.66 21.02 -11 20 C-14.3 23.3 -17.6 26.6 -21 30 C-21.66 29.67 -22.32 29.34 -23 29 C-21.74896484 27.83597656 -21.74896484 27.83597656 -20.47265625 26.6484375 C-12.10243108 18.67827818 -5.19763842 10.39527685 0 0 Z " fill="#071D46" transform="translate(503,300)"/>
<path d="M0 0 C4.84659077 0.59104765 8.60748167 1.97944157 13 4 C10.94766315 6.2477975 9.99332739 7.0022242 7 8 C4.73828125 7.44140625 4.73828125 7.44140625 2.3125 6.5625 C1.50425781 6.27503906 0.69601562 5.98757813 -0.13671875 5.69140625 C-0.75160156 5.46324219 -1.36648438 5.23507812 -2 5 C-1.01 4.01 -0.02 3.02 1 2 C0.67 1.34 0.34 0.68 0 0 Z " fill="#043261" transform="translate(434,607)"/>
<path d="M0 0 C2.5 1.3125 2.5 1.3125 4 3 C4 3.99 4 4.98 4 6 C0.6484259 7.13508688 -1.35675676 6.87309359 -4.6875 5.75 C-5.47511719 5.49734375 -6.26273438 5.2446875 -7.07421875 4.984375 C-9 4 -9 4 -10 1 C-6.81458315 -0.59270842 -3.46702488 -0.39055419 0 0 Z " fill="#0D3B67" transform="translate(641,610)"/>
<path d="M0 0 C0.66 0.33 1.32 0.66 2 1 C1.4652002 1.52432617 0.93040039 2.04865234 0.37939453 2.58886719 C-2.0439862 4.97063804 -4.45954024 7.36019763 -6.875 9.75 C-7.71675781 10.575 -8.55851562 11.4 -9.42578125 12.25 C-10.63427734 13.44882812 -10.63427734 13.44882812 -11.8671875 14.671875 C-12.98262939 15.77160645 -12.98262939 15.77160645 -14.12060547 16.89355469 C-15.89119525 18.87805048 -16.85402553 20.63126885 -18 23 C-20.125 24.25 -20.125 24.25 -22 25 C-17.70224125 15.22426897 -7.55644462 7.42932686 0 0 Z " fill="#16BF00" transform="translate(315,291)"/>
<path d="M0 0 C3.375 -0.1875 3.375 -0.1875 7 0 C7.66 0.99 8.32 1.98 9 3 C5.14591684 7.03812645 0.46956415 6.55257774 -4.75 6.6875 C-5.63816406 6.72166016 -6.52632813 6.75582031 -7.44140625 6.79101562 C-9.62747803 6.87328714 -11.81315951 6.94250172 -14 7 C-12 5 -12 5 -8.9609375 4.8046875 C-7.18589844 4.83949219 -7.18589844 4.83949219 -5.375 4.875 C-3.59222656 4.90207031 -3.59222656 4.90207031 -1.7734375 4.9296875 C-0.85820312 4.95289063 0.05703125 4.97609375 1 5 C0.67 3.35 0.34 1.7 0 0 Z " fill="#012554" transform="translate(420,604)"/>
<path d="M0 0 C3.59478807 3.32850747 6.22364768 6.98971331 9 11 C8.67 11.66 8.34 12.32 8 13 C6.0625 12.1875 6.0625 12.1875 4 11 C3.67 10.01 3.34 9.02 3 8 C2.01 7.67 1.02 7.34 0 7 C-1.04449911 3.86650268 -0.93423645 3.01031744 0 0 Z " fill="#004271" transform="translate(360,683)"/>
<path d="M0 0 C2.9834386 2.9834386 4.10349052 6.63362016 5.6875 10.5 C6.02072266 11.28503906 6.35394531 12.07007813 6.69726562 12.87890625 C7.00728516 13.63042969 7.31730469 14.38195312 7.63671875 15.15625 C7.92248779 15.84525391 8.20825684 16.53425781 8.50268555 17.24414062 C9 19 9 19 8 21 C-1.11645963 6.07142857 -1.11645963 6.07142857 -0.6875 2.125 C-0.460625 1.42375 -0.23375 0.7225 0 0 Z " fill="#081940" transform="translate(419,573)"/>
<path d="M0 0 C4.07376031 1.61010527 6.76507069 4.53822271 9.75 7.625 C10.25660156 8.140625 10.76320313 8.65625 11.28515625 9.1875 C12.52803902 10.45383339 13.76465276 11.7263144 15 13 C14.34 13.66 13.68 14.32 13 15 C8.92053693 13.64017898 7.28679158 10.82493962 4.8125 7.5 C4.11737305 6.58927734 4.11737305 6.58927734 3.40820312 5.66015625 C0 1.15269468 0 1.15269468 0 0 Z " fill="#0F2C57" transform="translate(511,269)"/>
<path d="M0 0 C4.91441412 1.43652105 9.00238358 3.54159615 13.375 6.125 C14.01566406 6.49753906 14.65632813 6.87007812 15.31640625 7.25390625 C16.88048477 8.16434002 18.44065534 9.08148191 20 10 C19.01 10.495 19.01 10.495 18 11 C17.01 10.67 16.02 10.34 15 10 C12.85744207 10.38932856 12.85744207 10.38932856 11 11 C11 9.68 11 8.36 11 7 C7.37 5.35 3.74 3.7 0 2 C0 1.34 0 0.68 0 0 Z " fill="#082555" transform="translate(448,612)"/>
<path d="M0 0 C1.12894876 0.93274109 2.25300876 1.87140122 3.375 2.8125 C4.00148438 3.33457031 4.62796875 3.85664062 5.2734375 4.39453125 C7 6 7 6 9 9 C8.01 9.66 7.02 10.32 6 11 C7.65 12.65 9.3 14.3 11 16 C7.15719715 14.75368556 4.92680104 13.63951308 3 10 C3.185625 9.34 3.37125 8.68 3.5625 8 C3.7790625 7.01 3.7790625 7.01 4 6 C2.10413616 3.85410577 2.10413616 3.85410577 0 2 C0 1.34 0 0.68 0 0 Z " fill="#032354" transform="translate(364,687)"/>
<path d="M0 0 C3.12910468 1.25164187 4.92874253 3.42801274 7.1875 5.875 C6.8575 6.535 6.5275 7.195 6.1875 7.875 C1.75291027 6.4812718 -0.68628374 4.26917765 -3.8125 0.875 C-1.8125 -0.125 -1.8125 -0.125 0 0 Z " fill="#013F6E" transform="translate(372.8125,696.125)"/>
<path d="M0 0 C5.57142857 5.14285714 5.57142857 5.14285714 6 9 C5.01 9 4.02 9 3 9 C2.67 10.65 2.34 12.3 2 14 C0.4375 12.25 0.4375 12.25 -1 10 C-0.8125 7.8125 -0.8125 7.8125 0 6 C0.66 5.67 1.32 5.34 2 5 C1.34 3.35 0.68 1.7 0 0 Z " fill="#04224A" transform="translate(541,302)"/>
<path d="M0 0 C1.43655854 -0.08131463 2.8744483 -0.13933559 4.3125 -0.1875 C5.51326172 -0.23970703 5.51326172 -0.23970703 6.73828125 -0.29296875 C9.47851584 0.06198392 10.29171079 0.89366282 12 3 C11.67 3.66 11.34 4.32 11 5 C8.03 5 5.06 5 2 5 C1.34 3.35 0.68 1.7 0 0 Z " fill="#054472" transform="translate(586,707)"/>
<path d="M0 0 C5.69911504 1.48672566 5.69911504 1.48672566 7.0625 3.8125 C7.371875 4.534375 7.68125 5.25625 8 6 C9.62746694 7.70496537 11.28891311 9.37897032 13 11 C7.71860321 9.51460715 3.71945899 5.91327696 0 2 C0 1.34 0 0.68 0 0 Z " fill="#033D69" transform="translate(489,639)"/>
<path d="M0 0 C3.56695591 1.1889853 4.28715826 2.34748618 6.5 5.3125 C7.38171875 6.48232422 7.38171875 6.48232422 8.28125 7.67578125 C9.13203125 8.82626953 9.13203125 8.82626953 10 10 C10.99963646 11.33360591 11.99951202 12.66703279 13 14 C12.67 14.66 12.34 15.32 12 16 C9.99397361 13.71336873 7.99508435 11.42114438 6 9.125 C5.14148438 8.14853516 5.14148438 8.14853516 4.265625 7.15234375 C3.72421875 6.52714844 3.1828125 5.90195312 2.625 5.2578125 C2.12226562 4.6817627 1.61953125 4.10571289 1.1015625 3.51220703 C0 2 0 2 0 0 Z " fill="#21C306" transform="translate(721,317)"/>
<path d="M0 0 C0.33 0.99 0.66 1.98 1 3 C2.65 3.33 4.3 3.66 6 4 C5.67 4.66 5.34 5.32 5 6 C2.03 5.67 -0.94 5.34 -4 5 C-3.67 3.68 -3.34 2.36 -3 1 C-2.01 0.67 -1.02 0.34 0 0 Z " fill="#064170" transform="translate(447,611)"/>
<path d="M0 0 C4.35535069 1.16142685 6.64619703 2.07699505 9 6 C2.25 5.125 2.25 5.125 0 4 C0 2.68 0 1.36 0 0 Z " fill="#083C69" transform="translate(572,700)"/>
<path d="M0 0 C4.43090471 1.20842856 6.98112756 2.51668565 10 6 C6 6 6 6 4.25 4.5 C3.8375 4.005 3.425 3.51 3 3 C3 3.66 3 4.32 3 5 C1.35 4.67 -0.3 4.34 -2 4 C-1.01 3.67 -0.02 3.34 1 3 C0.67 2.01 0.34 1.02 0 0 Z " fill="#032151" transform="translate(644,613)"/>
<path d="M0 0 C0.99 0 1.98 0 3 0 C3 1.65 3 3.3 3 5 C5.31 5.66 7.62 6.32 10 7 C6.52128379 8.15957207 5.65780355 7.77456651 2.3125 6.5625 C1.50425781 6.27503906 0.69601562 5.98757813 -0.13671875 5.69140625 C-0.75160156 5.46324219 -1.36648438 5.23507812 -2 5 C-1.01 4.01 -0.02 3.02 1 2 C0.67 1.34 0.34 0.68 0 0 Z " fill="#042556" transform="translate(434,607)"/>
<path d="M0 0 C0.99 0 1.98 0 3 0 C3.6875 3.3125 3.6875 3.3125 4 7 C2.5625 8.9375 2.5625 8.9375 1 10 C0.37542727 6.56484998 0 3.50935186 0 0 Z " fill="#103662" transform="translate(416,566)"/>
<path d="M0 0 C2.52588702 2.36292656 3.88820837 3.66462511 5 7 C3.68 7.33 2.36 7.66 1 8 C-1.125 3.375 -1.125 3.375 0 0 Z " fill="#013760" transform="translate(539,301)"/>
<path d="M0 0 C0.66 0.33 1.32 0.66 2 1 C1.67 2.32 1.34 3.64 1 5 C-2.375 5.125 -2.375 5.125 -6 5 C-6.66 4.34 -7.32 3.68 -8 3 C-7.236875 2.87625 -6.47375 2.7525 -5.6875 2.625 C-2.79732864 2.11897208 -2.79732864 2.11897208 0 0 Z " fill="#0D446F" transform="translate(391,705)"/>
<path d="M0 0 C3.37503669 1.1858237 5.64722731 2.27573689 8 5 C7.34 5 6.68 5 6 5 C5.67 5.99 5.34 6.98 5 8 C4.01 7.01 3.02 6.02 2 5 C2.66 5 3.32 5 4 5 C2.68 3.35 1.36 1.7 0 0 Z " fill="#072854" transform="translate(550,689)"/>
<path d="M0 0 C3.81936528 1.55603771 6.26044438 3.95604931 9 7 C9 7.66 9 8.32 9 9 C4.44984107 7.48328036 2.49942736 3.83108947 0 0 Z " fill="#1A2F53" transform="translate(511,269)"/>
<path d="M0 0 C0.99 0.99 1.98 1.98 3 3 C2.01 4.485 2.01 4.485 1 6 C0.01 6 -0.98 6 -2 6 C-2.33 4.68 -2.66 3.36 -3 2 C-2.01 1.34 -1.02 0.68 0 0 Z " fill="#00416F" transform="translate(671,638)"/>
<path d="M0 0 C0.33 1.32 0.66 2.64 1 4 C-0.98 4 -2.96 4 -5 4 C-5.33 3.01 -5.66 2.02 -6 1 C-4 0 -4 0 0 0 Z " fill="#033764" transform="translate(637,610)"/>
<path d="M0 0 C0.66 0.33 1.32 0.66 2 1 C2 1.99 2 2.98 2 4 C0.35 4.66 -1.3 5.32 -3 6 C-3.33 5.01 -3.66 4.02 -4 3 C-3 1 -3 1 0 0 Z " fill="#084470" transform="translate(433,606)"/>
<path d="M0 0 C2.125 0.9375 2.125 0.9375 4 2 C4 2.99 4 3.98 4 5 C2.02 4.34 0.04 3.68 -2 3 C-2 2.34 -2 1.68 -2 1 C-1.34 0.67 -0.68 0.34 0 0 Z " fill="#09416F" transform="translate(661,627)"/>
<path d="M0 0 C3.057952 1.73559438 5.63379989 3.38472619 8 6 C7.01 6.495 7.01 6.495 6 7 C3.95880212 5.38405168 1.95927063 3.7143618 0 2 C0 1.34 0 0.68 0 0 Z " fill="#013C6C" transform="translate(526,672)"/>
<path d="M0 0 C2.31 1.98 4.62 3.96 7 6 C6.01 6.495 6.01 6.495 5 7 C3.02 5.35 1.04 3.7 -1 2 C-0.67 1.34 -0.34 0.68 0 0 Z " fill="#003D68" transform="translate(518,664)"/>
<path d="M0 0 C0.99 0.33 1.98 0.66 3 1 C3.33 3.64 3.66 6.28 4 9 C1.49701566 6.06171403 0.53069061 3.82097239 0 0 Z " fill="#28C405" transform="translate(249,621)"/>
<path d="M0 0 C1.98 0.99 3.96 1.98 6 3 C2.67465243 4.10844919 0.37817425 3.84454356 -3 3 C-2.01 2.01 -1.02 1.02 0 0 Z " fill="#09406F" transform="translate(463,621)"/>
<path d="M0 0 C0.33 0 0.66 0 1 0 C1.33 3.3 1.66 6.6 2 10 C0 7 0 7 0 5 C-0.66 5 -1.32 5 -2 5 C-1.125 1.125 -1.125 1.125 0 0 Z " fill="#48D00C" transform="translate(797,536)"/>
<path d="M0 0 C0.66 0.33 1.32 0.66 2 1 C-2 7.57142857 -2 7.57142857 -6 9 C-4.47291037 5.56404834 -2.40072955 2.88087546 0 0 Z " fill="#26C608" transform="translate(299,307)"/>
<path d="M0 0 C0 3 0 3 -2 5.1875 C-2.66 5.785625 -3.32 6.38375 -4 7 C-4.99 6.67 -5.98 6.34 -7 6 C-4.69 4.02 -2.38 2.04 0 0 Z " fill="#22C303" transform="translate(688,720)"/>
<path d="M0 0 C1.98 0 3.96 0 6 0 C6.33 1.32 6.66 2.64 7 4 C4.97954558 3.39816251 2.97888961 2.72693904 1 2 C0.67 1.34 0.34 0.68 0 0 Z " fill="#003D6C" transform="translate(564,699)"/>
<path d="M0 0 C0 3 0 3 -2.5 5.6875 C-3.325 6.450625 -4.15 7.21375 -5 8 C-5.66 7.67 -6.32 7.34 -7 7 C-4.69 4.69 -2.38 2.38 0 0 Z " fill="#011C4B" transform="translate(493,350)"/>
<path d="M0 0 C0.99 0.33 1.98 0.66 3 1 C1.75023244 4.65316671 1.32901247 5.78065836 -2 8 C-1.125 1.125 -1.125 1.125 0 0 Z " fill="#041D48" transform="translate(494,315)"/>
</svg>
